STARTFONT 2.1
FONT -Monotype-Courier-Bold-R-Normal--33-240-100-100-M-164-iso8859-5
SIZE 24 100 100
FONTBOUNDINGBOX 23 35 -2 -7

STARTPROPERTIES 24
FOUNDRY "Monotype"
FAMILY_NAME "Courier"
WEIGHT_NAME "Bold"
SLANT "R"
SETWIDTH_NAME "Normal"
ADD_STYLE_NAME ""
PIXEL_SIZE 33
POINT_SIZE 240
RESOLUTION_X 100
RESOLUTION_Y 100
SPACING "M"
AVERAGE_WIDTH 164
CHARSET_REGISTRY "iso8859"
CHARSET_ENCODING "5"
FACE_NAME "Courier Bold ISO Latin Cyrillic"
_DEC_DEVICE_FONTNAMES "PS=courier-b-latcyrillic"
COPYRIGHT "Copyright (c) 1993 Monotype Typography Ltd."
CAP_HEIGHT 20
X_HEIGHT 15
WEIGHT 10
QUAD_WIDTH 20
DEFAULT_CHAR 160
FONT_DESCENT 7
FONT_ASCENT 28
ENDPROPERTIES

CHARS 191

STARTCHAR space
ENCODING 32
SWIDTH 600 0
DWIDTH 20 0
BBX 0 0 0 0
BITMAP
ENDCHAR

STARTCHAR exclam
ENCODING 33
SWIDTH 600 0
DWIDTH 20 0
BBX 5 22 7 0
BITMAP
70
F8
F8
F8
F8
F8
F8
F8
F8
F8
70
70
70
70
70
20
00
00
00
78
78
78
ENDCHAR

STARTCHAR quotedbl
ENCODING 34
SWIDTH 600 0
DWIDTH 20 0
BBX 11 9 4 11
BITMAP
F9E0
F1E0
71E0
70E0
70E0
70E0
70E0
70C0
20C0
ENDCHAR

STARTCHAR numbersign
ENCODING 35
SWIDTH 600 0
DWIDTH 20 0
BBX 16 26 2 -3
BITMAP
0618
0E38
0E38
0E38
0E38
0E38
0E38
0E38
7FFE
7FFF
6FFE
1E78
1E70
1E70
1E70
FFFE
FFFE
FFFE
1C70
1C70
1C70
1C70
1CF0
1CF0
1CF0
1860
ENDCHAR

STARTCHAR dollar
ENCODING 36
SWIDTH 600 0
DWIDTH 20 0
BBX 15 27 2 -4
BITMAP
0380
0380
0380
0FFC
3FFC
3FFC
7C3C
701C
700C
7800
7F00
3FF0
1FFC
03FC
001E
600E
E00E
F01E
FC3E
FFFC
FFF8
6FE0
0380
0380
0380
0380
0380
ENDCHAR

STARTCHAR percent
ENCODING 37
SWIDTH 600 0
DWIDTH 20 0
BBX 15 21 2 0
BITMAP
1F00
3F80
71C0
60C0
60C0
60C0
31C0
3F84
1E3E
01F8
0FE0
3E00
F9F0
43F8
071C
060C
060C
060C
0318
03F8
00F0
ENDCHAR

STARTCHAR ampersand
ENCODING 38
SWIDTH 600 0
DWIDTH 20 0
BBX 14 18 4 0
BITMAP
0FE0
1FF0
1FF0
3CC0
3800
3800
3C00
1E00
3E00
7F3C
FBBC
F3BC
E3F8
E1F0
F0F0
7FFC
7FFC
1FBC
ENDCHAR

STARTCHAR quoteright
ENCODING 39
SWIDTH 600 0
DWIDTH 20 0
BBX 7 10 5 10
BITMAP
3E
3C
38
78
70
70
E0
E0
C0
C0
ENDCHAR

STARTCHAR parenleft
ENCODING 40
SWIDTH 600 0
DWIDTH 20 0
BBX 8 27 9 -5
BITMAP
06
0F
1E
1E
3C
3C
38
78
78
70
F0
F0
F0
F0
F0
F0
F0
70
78
78
38
3C
3C
1E
0E
0F
06
ENDCHAR

STARTCHAR parenright
ENCODING 41
SWIDTH 600 0
DWIDTH 20 0
BBX 8 27 3 -5
BITMAP
60
F0
78
78
3C
3C
1E
1E
1E
0E
0F
0F
0F
0F
0F
0F
0F
0E
1E
1E
1C
3C
3C
78
F8
70
60
ENDCHAR

STARTCHAR asterisk
ENCODING 42
SWIDTH 600 0
DWIDTH 20 0
BBX 15 14 2 7
BITMAP
0180
0380
0380
0380
638C
FFFE
FFFE
3FF8
07C0
0FE0
1EF0
1EF0
3C78
1830
ENDCHAR

STARTCHAR plus
ENCODING 43
SWIDTH 600 0
DWIDTH 20 0
BBX 17 19 1 0
BITMAP
00C000
01C000
01C000
01C000
01C000
01C000
01C000
01C000
FFFF80
FFFF80
FFFF80
01C000
01C000
01C000
01C000
01C000
01C000
01C000
00C000
ENDCHAR

STARTCHAR comma
ENCODING 44
SWIDTH 600 0
DWIDTH 20 0
BBX 7 9 7 -5
BITMAP
3E
38
78
70
70
E0
E0
C0
C0
ENDCHAR

STARTCHAR minus
ENCODING 45
SWIDTH 600 0
DWIDTH 20 0
BBX 18 3 1 8
BITMAP
7FFF80
FFFFC0
7FFF80
ENDCHAR

STARTCHAR period
ENCODING 46
SWIDTH 600 0
DWIDTH 20 0
BBX 5 4 7 0
BITMAP
70
F8
F8
70
ENDCHAR

STARTCHAR slash
ENCODING 47
SWIDTH 600 0
DWIDTH 20 0
BBX 14 27 3 -4
BITMAP
0018
001C
003C
0038
0078
0070
00F0
00F0
01E0
01E0
01C0
03C0
0380
0780
0700
0F00
0E00
1E00
1C00
3C00
3800
7800
7000
F000
F000
E000
C000
ENDCHAR

STARTCHAR zero
ENCODING 48
SWIDTH 600 0
DWIDTH 20 0
BBX 14 22 3 0
BITMAP
0FC0
1FE0
3FF0
7CF8
7878
F03C
F01C
E01C
E01C
E01C
E01C
E01C
E01C
E01C
E01C
F01C
F03C
7878
7CF8
3FF0
1FE0
0FC0
ENDCHAR

STARTCHAR one
ENCODING 49
SWIDTH 600 0
DWIDTH 20 0
BBX 15 21 2 0
BITMAP
0080
0F80
7F80
FF80
7B80
0380
0380
0380
0380
0380
0380
0380
0380
0380
0380
0380
0380
0380
7FFC
FFFE
7FFC
ENDCHAR

STARTCHAR two
ENCODING 50
SWIDTH 600 0
DWIDTH 20 0
BBX 15 21 2 0
BITMAP
07E0
1FF8
3FFC
7C3E
781E
700E
700E
001E
001E
003C
0078
01F0
03E0
07C0
0F80
1F00
3E00
F804
FFFE
FFFE
FFFE
ENDCHAR

STARTCHAR three
ENCODING 51
SWIDTH 600 0
DWIDTH 20 0
BBX 15 22 3 0
BITMAP
0FE0
3FF0
7FF8
787C
703C
001C
001C
003C
00FC
07F8
07F0
03F8
007C
001E
000E
000E
000E
001E
F07E
FFFC
FFF8
3FE0
ENDCHAR

STARTCHAR four
ENCODING 52
SWIDTH 600 0
DWIDTH 20 0
BBX 14 21 3 0
BITMAP
00F0
01F0
03F0
03F0
07F0
07B0
0F70
1E70
1E70
3C70
3C70
7870
F070
FFFC
FFFC
FFFC
0070
0070
03FC
07FC
03FC
ENDCHAR

STARTCHAR five
ENCODING 53
SWIDTH 600 0
DWIDTH 20 0
BBX 15 21 2 0
BITMAP
3FF8
3FFC
3FF8
3800
3800
3800
3800
3FF0
3FF8
3FFC
3C3C
001E
000E
000E
000E
000E
401E
F03C
FFFC
7FF8
1FE0
ENDCHAR

STARTCHAR six
ENCODING 54
SWIDTH 600 0
DWIDTH 20 0
BBX 14 21 4 0
BITMAP
01F8
07FC
0FFC
1F08
3C00
7800
7800
F000
E7C0
FFF0
FFF8
FC78
F83C
F01C
F01C
F01C
703C
787C
3FF8
1FF0
0FE0
ENDCHAR

STARTCHAR seven
ENCODING 55
SWIDTH 600 0
DWIDTH 20 0
BBX 15 21 2 0
BITMAP
FFFE
FFFE
FFFE
F01E
601C
001C
003C
0038
0078
0078
0070
00F0
00F0
00E0
01E0
01E0
01C0
03C0
03C0
0380
0180
ENDCHAR

STARTCHAR eight
ENCODING 56
SWIDTH 600 0
DWIDTH 20 0
BBX 14 21 3 0
BITMAP
0FC0
3FF0
7FF8
F87C
F03C
E01C
E01C
F03C
787C
3FF8
3FF0
7FF8
787C
F03C
E01C
E01C
E01C
F87C
7FF8
3FF0
0FC0
ENDCHAR

STARTCHAR nine
ENCODING 57
SWIDTH 600 0
DWIDTH 20 0
BBX 14 21 4 0
BITMAP
0F80
3FE0
7FF0
78F8
F078
E038
E03C
E03C
E03C
F07C
78FC
7FFC
3FDC
0FBC
003C
0078
00F8
43F0
FFE0
FF80
7E00
ENDCHAR

STARTCHAR colon
ENCODING 58
SWIDTH 600 0
DWIDTH 20 0
BBX 5 15 7 0
BITMAP
70
F8
F8
70
00
00
00
00
00
00
00
78
F8
F8
70
ENDCHAR

STARTCHAR semicolon
ENCODING 59
SWIDTH 600 0
DWIDTH 20 0
BBX 7 18 7 -4
BITMAP
1C
3E
3E
1C
00
00
00
00
00
3C
38
78
70
70
E0
C0
C0
80
ENDCHAR

STARTCHAR less
ENCODING 60
SWIDTH 600 0
DWIDTH 20 0
BBX 19 19 0 0
BITMAP
0000C0
0003E0
000FC0
003F80
007F00
01FC00
07F000
1FC000
7F0000
FC0000
7F0000
1FC000
07F000
01FC00
00FE00
003F80
000FE0
0003C0
0000C0
ENDCHAR

STARTCHAR equal
ENCODING 61
SWIDTH 600 0
DWIDTH 20 0
BBX 18 9 1 5
BITMAP
FFFFC0
FFFFC0
FFFFC0
000000
000000
000000
FFFFC0
FFFFC0
FFFFC0
ENDCHAR

STARTCHAR greater
ENCODING 62
SWIDTH 600 0
DWIDTH 20 0
BBX 19 19 1 0
BITMAP
600000
F80000
FE0000
7F0000
1FC000
07F000
01FC00
007F00
003F80
000FE0
001FC0
007F00
01FC00
07F000
1FC000
3F8000
7E0000
F80000
600000
ENDCHAR

STARTCHAR question
ENCODING 63
SWIDTH 600 0
DWIDTH 20 0
BBX 13 20 4 0
BITMAP
1FC0
FFE0
FFF0
F078
E038
E038
4038
0078
00F8
07F0
07E0
0780
0700
0200
0000
0000
0000
0F00
0F80
0700
ENDCHAR

STARTCHAR at
ENCODING 64
SWIDTH 600 0
DWIDTH 20 0
BBX 13 24 3 -3
BITMAP
0F80
3FE0
38E0
7070
6030
E030
C030
C1F0
C7F0
C730
CE30
CC30
CC30
CE30
C7F0
C7F8
C1F0
E000
E000
6000
7030
38F0
3FF0
0FC0
ENDCHAR

STARTCHAR A
ENCODING 65
SWIDTH 600 0
DWIDTH 20 0
BBX 22 20 -1 0
BITMAP
0FF800
1FF800
0FFC00
00FC00
01EE00
01DE00
03CE00
03CF00
038700
078780
070380
07FF80
0FFFC0
0FFFC0
1E01E0
1E01E0
1C00E0
7F87F8
FF87FC
7F87F8
ENDCHAR

STARTCHAR B
ENCODING 66
SWIDTH 600 0
DWIDTH 20 0
BBX 18 20 0 0
BITMAP
FFFC00
FFFE00
FFFF00
1C0F80
1C0380
1C0380
1C0380
1C0780
1C1F80
1FFE00
1FFF00
1FFF80
1C07C0
1C03C0
1C01C0
1C01C0
1C03C0
FFFFC0
FFFF80
7FFE00
ENDCHAR

STARTCHAR C
ENCODING 67
SWIDTH 600 0
DWIDTH 20 0
BBX 18 20 1 0
BITMAP
07F900
0FFF80
1FFF80
3E1F80
780780
700380
F00380
E00000
E00000
E00000
E00000
E00000
E00000
F00000
F00100
7803C0
3E0F80
3FFF80
0FFF00
03F800
ENDCHAR

STARTCHAR D
ENCODING 68
SWIDTH 600 0
DWIDTH 20 0
BBX 17 20 1 0
BITMAP
FFF000
FFFC00
FFFE00
383E00
380F00
380700
380780
380380
380380
380380
380380
380380
380380
380380
380780
380F00
383F00
FFFE00
FFFC00
FFF000
ENDCHAR

STARTCHAR E
ENCODING 69
SWIDTH 600 0
DWIDTH 20 0
BBX 18 20 0 0
BITMAP
FFFF80
FFFF80
7FFF80
1C0380
1C0380
1C2380
1C7380
1C7000
1FF000
1FF000
1FF000
1C7000
1C7080
1C71C0
1C01C0
1C01C0
1C01C0
FFFFC0
FFFFC0
7FFFC0
ENDCHAR

STARTCHAR F
ENCODING 70
SWIDTH 600 0
DWIDTH 20 0
BBX 18 20 1 0
BITMAP
FFFFC0
FFFFC0
7FFFC0
1C01C0
1C01C0
1C21C0
1C71C0
1C7000
1FF000
1FF000
1FF000
1C7000
1C7000
1C7000
1C0000
1C0000
1C0000
FFE000
FFF000
7FE000
ENDCHAR

STARTCHAR G
ENCODING 71
SWIDTH 600 0
DWIDTH 20 0
BBX 19 20 1 0
BITMAP
03F900
0FFF80
1FFF80
3E0F80
780380
700380
F00180
E00000
E00000
E00000
E00000
E0FFC0
E0FFE0
E07FC0
F00380
780380
7C0780
3FFF80
1FFF00
07FC00
ENDCHAR

STARTCHAR H
ENCODING 72
SWIDTH 600 0
DWIDTH 20 0
BBX 19 20 0 0
BITMAP
7F1FC0
7FBFC0
7F1FC0
1C0700
1C0700
1C0700
1C0700
1C0700
1C0700
1FFF00
1FFF00
1FFF00
1C0700
1C0700
1C0700
1C0700
1C0700
7F1FC0
FFBFE0
7F1FC0
ENDCHAR

STARTCHAR I
ENCODING 73
SWIDTH 600 0
DWIDTH 20 0
BBX 15 20 2 0
BITMAP
7FFC
FFFE
7FFC
0380
0380
0380
0380
0380
0380
0380
0380
0380
0380
0380
0380
0380
0380
7FFC
FFFE
7FFC
ENDCHAR

STARTCHAR J
ENCODING 74
SWIDTH 600 0
DWIDTH 20 0
BBX 18 20 2 0
BITMAP
07FFC0
07FFC0
07FFC0
001C00
001C00
001C00
001C00
001C00
001C00
001C00
601C00
E01C00
E01C00
E01C00
E01C00
E03C00
F8F800
FFF800
7FF000
0FC000
ENDCHAR

STARTCHAR K
ENCODING 75
SWIDTH 600 0
DWIDTH 20 0
BBX 20 20 0 0
BITMAP
FF9FE0
FFDFE0
FF8FE0
1C1F80
1C3E00
1C7C00
1CF800
1DF000
1FE000
1FF000
1FF800
1F7C00
1E3E00
1C1E00
1C0F00
1C0F00
1C0780
FF87E0
FFC3F0
7F83E0
ENDCHAR

STARTCHAR L
ENCODING 76
SWIDTH 600 0
DWIDTH 20 0
BBX 17 20 2 0
BITMAP
FFE000
FFE000
FFE000
0E0000
0E0000
0E0000
0E0000
0E0000
0E0000
0E0000
0E0000
0E0180
0E0380
0E0380
0E0380
0E0380
0E0380
FFFF80
FFFF80
FFFF80
ENDCHAR

STARTCHAR M
ENCODING 77
SWIDTH 600 0
DWIDTH 20 0
BBX 21 20 -1 0
BITMAP
7C01F0
FE03F8
FE03F8
3E03E0
3F07E0
3F07E0
3F8FE0
3B8EE0
3BDEE0
3BDEE0
39FCE0
39FCE0
38F8E0
38F8E0
3870E0
3800E0
3800E0
FF07F8
FF8FF8
FF07F8
ENDCHAR

STARTCHAR N
ENCODING 78
SWIDTH 600 0
DWIDTH 20 0
BBX 20 20 -1 0
BITMAP
FE0FF0
FE1FF0
FF0FF0
1F81C0
1F81C0
1FC1C0
1DC1C0
1DE1C0
1CF1C0
1CF1C0
1C79C0
1C7DC0
1C3DC0
1C1EC0
1C1FC0
1C0FC0
1C07C0
7F87C0
7FC3C0
7F83C0
ENDCHAR

STARTCHAR O
ENCODING 79
SWIDTH 600 0
DWIDTH 20 0
BBX 18 20 1 0
BITMAP
03F000
0FFC00
1FFE00
3E1F00
7C0780
780780
F003C0
F003C0
E001C0
E001C0
E001C0
E001C0
F003C0
F003C0
780780
7C0F80
3E1F00
1FFE00
0FFC00
03F000
ENDCHAR

STARTCHAR P
ENCODING 80
SWIDTH 600 0
DWIDTH 20 0
BBX 17 20 2 0
BITMAP
FFF800
FFFE00
FFFF00
1C0F80
1C0780
1C0380
1C0380
1C0380
1C0780
1C1F00
1FFF00
1FFE00
1FF800
1C0000
1C0000
1C0000
1C0000
FFE000
FFF000
7FE000
ENDCHAR

STARTCHAR Q
ENCODING 81
SWIDTH 600 0
DWIDTH 20 0
BBX 18 25 1 -5
BITMAP
03F000
0FFC00
1FFE00
3E1F00
7C0780
780780
F003C0
F003C0
E001C0
E001C0
E001C0
E001C0
F003C0
F003C0
780780
7C0F80
3E1F00
1FFE00
0FFC00
03F800
07C080
0FFBC0
1FFFC0
1FFFC0
1F1F00
ENDCHAR

STARTCHAR R
ENCODING 82
SWIDTH 600 0
DWIDTH 20 0
BBX 20 20 0 0
BITMAP
FFF800
FFFE00
FFFF00
1C0F80
1C0780
1C0380
1C0380
1C0780
1C1F00
1FFF00
1FFC00
1FFC00
1C3E00
1C1F00
1C0F00
1C0780
1C03C0
FF83F0
FFC1F0
7F80F0
ENDCHAR

STARTCHAR S
ENCODING 83
SWIDTH 600 0
DWIDTH 20 0
BBX 16 20 2 0
BITMAP
07F6
1FFE
3FFE
7C3E
780E
700E
7006
7800
3FC0
1FF8
0FFE
01FE
001F
6007
F007
F00F
FC3F
FFFE
FFFC
47F0
ENDCHAR

STARTCHAR T
ENCODING 84
SWIDTH 600 0
DWIDTH 20 0
BBX 17 20 1 0
BITMAP
FFFF80
FFFF80
FFFF80
E1C380
E1C380
E1C380
E1C380
E1C380
41C100
01C000
01C000
01C000
01C000
01C000
01C000
01C000
01C000
1FFC00
3FFE00
1FFC00
ENDCHAR

STARTCHAR U
ENCODING 85
SWIDTH 600 0
DWIDTH 20 0
BBX 19 20 0 0
BITMAP
FF1FE0
FFBFE0
FF1FE0
380380
380380
380380
380380
380380
380380
380380
380380
380380
380380
380380
3C0780
3C0780
1F1F00
0FFE00
07FC00
03F800
ENDCHAR

STARTCHAR V
ENCODING 86
SWIDTH 600 0
DWIDTH 20 0
BBX 22 20 -1 0
BITMAP
7F87F8
FF87FC
7F87F8
1C00E0
1E01E0
0E01C0
0F03C0
0F03C0
070780
078780
038700
03CF00
03CF00
01DE00
01EE00
00FC00
00FC00
00F800
007800
007800
ENDCHAR

STARTCHAR W
ENCODING 87
SWIDTH 600 0
DWIDTH 20 0
BBX 20 20 0 0
BITMAP
FF0FF0
FF1FF0
FF0FF0
7801E0
7801C0
78F1C0
38F1C0
39F9C0
39F9C0
39F9C0
3BDFC0
3DBDC0
3D9DC0
3F9F80
1F9F80
1F0F80
1F0F80
1F0F80
1E0780
1E0780
ENDCHAR

STARTCHAR X
ENCODING 88
SWIDTH 600 0
DWIDTH 20 0
BBX 20 20 0 0
BITMAP
7F0FE0
7F0FE0
7F0FE0
1E0780
0F0F00
0F9E00
07BE00
03FC00
01F800
00F000
01F800
03F800
03FC00
079E00
0F0F00
1F0F80
3E0780
7F0FE0
FF9FF0
7F0FE0
ENDCHAR

STARTCHAR Y
ENCODING 89
SWIDTH 600 0
DWIDTH 20 0
BBX 19 20 0 0
BITMAP
7E0FC0
FF1FE0
7C07C0
1E0F00
1E0F00
0F1E00
07BC00
07BC00
03F800
03F800
01F000
00E000
00E000
00E000
00E000
00E000
00E000
0FFE00
1FFF00
0FFE00
ENDCHAR

STARTCHAR Z
ENCODING 90
SWIDTH 600 0
DWIDTH 20 0
BBX 15 20 2 0
BITMAP
7FFE
7FFE
7FFE
703C
707C
70F8
70F0
71E0
03E0
03C0
0780
0F00
1F0E
1E0E
3C0E
780E
F00E
FFFE
FFFE
FFFE
ENDCHAR

STARTCHAR bracketleft
ENCODING 91
SWIDTH 600 0
DWIDTH 20 0
BBX 7 26 8 -5
BITMAP
FE
FE
FE
E0
E0
E0
E0
E0
E0
E0
E0
E0
E0
E0
E0
E0
E0
E0
E0
E0
E0
E0
E0
FE
FE
FE
ENDCHAR

STARTCHAR backslash
ENCODING 92
SWIDTH 600 0
DWIDTH 20 0
BBX 14 27 3 -4
BITMAP
C000
E000
F000
F000
7800
7800
3800
3C00
1C00
1E00
0E00
0F00
0700
0780
0380
03C0
01C0
01E0
00E0
00F0
00F0
0078
0078
003C
003C
001C
0008
ENDCHAR

STARTCHAR bracketright
ENCODING 93
SWIDTH 600 0
DWIDTH 20 0
BBX 7 26 4 -5
BITMAP
FE
FE
FE
0E
0E
0E
0E
0E
0E
0E
0E
0E
0E
0E
0E
0E
0E
0E
0E
0E
0E
0E
0E
FE
FE
FE
ENDCHAR

STARTCHAR asciicircum
ENCODING 94
SWIDTH 600 0
DWIDTH 20 0
BBX 14 11 3 11
BITMAP
0100
0300
0780
0FC0
1FE0
3EE0
3CF0
7878
F03C
E03C
E01C
ENDCHAR

STARTCHAR underscore
ENCODING 95
SWIDTH 600 0
DWIDTH 20 0
BBX 20 2 0 -4
BITMAP
FFFFF0
FFFFF0
ENDCHAR

STARTCHAR quoteleft
ENCODING 96
SWIDTH 600 0
DWIDTH 20 0
BBX 7 10 8 10
BITMAP
F8
78
78
3C
1C
1C
0C
0E
06
06
ENDCHAR

STARTCHAR a
ENCODING 97
SWIDTH 600 0
DWIDTH 20 0
BBX 17 16 2 0
BITMAP
1FE000
3FF800
7FFC00
3C7C00
001C00
001C00
1FFC00
3FFC00
7FFC00
F83C00
F01C00
E03C00
F0FC00
FFFF80
7FFF80
1F9F80
ENDCHAR

STARTCHAR b
ENCODING 98
SWIDTH 600 0
DWIDTH 20 0
BBX 19 21 0 0
BITMAP
FC0000
FC0000
7C0000
1C0000
1C0000
1CFC00
1FFF00
1FFF80
1F87C0
1F03C0
1E01E0
1C00E0
1C00E0
1C00E0
1C00E0
1E01E0
1E03E0
1F87C0
FFFF80
FFFF00
FCFC00
ENDCHAR

STARTCHAR c
ENCODING 99
SWIDTH 600 0
DWIDTH 20 0
BBX 17 16 2 0
BITMAP
07F200
1FFF00
3FFF00
7C1F00
780F00
F00700
E00600
E00000
E00000
E00000
F00000
F00300
7E1F80
3FFF00
1FFE00
07F800
ENDCHAR

STARTCHAR d
ENCODING 100
SWIDTH 600 0
DWIDTH 20 0
BBX 19 21 1 0
BITMAP
003F00
003F00
001F00
000700
000700
07E700
1FFF00
3FFF00
7C3F00
781F00
F00F00
E00700
E00700
E00700
E00700
F00F00
701F00
7C3F00
3FFFE0
1FFFE0
07E7E0
ENDCHAR

STARTCHAR e
ENCODING 101
SWIDTH 600 0
DWIDTH 20 0
BBX 17 16 1 0
BITMAP
07F000
1FFC00
3FFE00
7C1F00
780F00
700780
FFFF80
FFFF80
FFFF80
F00000
700000
780300
3F3F80
3FFF80
0FFF00
07FC00
ENDCHAR

STARTCHAR f
ENCODING 102
SWIDTH 600 0
DWIDTH 20 0
BBX 16 21 3 0
BITMAP
01FE
07FF
0FFF
0F02
0E00
0E00
FFFC
FFFC
FFFC
0E00
0E00
0E00
0E00
0E00
0E00
0E00
0E00
0E00
FFFC
FFFC
FFFC
ENDCHAR

STARTCHAR g
ENCODING 103
SWIDTH 600 0
DWIDTH 20 0
BBX 18 22 1 -6
BITMAP
0FE000
1FFFC0
3FFFC0
7C7FC0
783E00
F01E00
E00E00
E00E00
E00E00
E00E00
F01E00
783E00
7C7E00
3FFE00
1FFE00
07CE00
000E00
000E00
001E00
0FFC00
1FF800
0FF000
ENDCHAR

STARTCHAR h
ENCODING 104
SWIDTH 600 0
DWIDTH 20 0
BBX 19 21 1 0
BITMAP
FC0000
FC0000
7C0000
1C0000
1C0000
1DF800
1FFE00
1FFE00
1F8F00
1E0700
1C0700
1C0700
1C0700
1C0700
1C0700
1C0700
1C0700
1C0700
7F1FC0
FF1FE0
7F1FC0
ENDCHAR

STARTCHAR i
ENCODING 105
SWIDTH 600 0
DWIDTH 20 0
BBX 15 21 2 0
BITMAP
0780
0780
0780
0000
0000
0000
7F80
7F80
7F80
0380
0380
0380
0380
0380
0380
0380
0380
0380
FFFE
FFFE
FFFE
ENDCHAR

STARTCHAR j
ENCODING 106
SWIDTH 600 0
DWIDTH 20 0
BBX 12 27 3 -6
BITMAP
03C0
03C0
03C0
0000
0000
0000
FFF0
FFF0
FFF0
0070
0070
0070
0070
0070
0070
0070
0070
0070
0070
0070
0070
0070
00F0
01F0
FFE0
FFC0
FF80
ENDCHAR

STARTCHAR k
ENCODING 107
SWIDTH 600 0
DWIDTH 20 0
BBX 18 21 1 0
BITMAP
FC0000
FC0000
7C0000
1C0000
1C0000
1C0000
1C7F00
1CFF80
1C7F00
1CF800
1DF000
1FE000
1F8000
1FC000
1FE000
1DF000
1CF800
1C3E00
FC3FC0
FC3FC0
FC3FC0
ENDCHAR

STARTCHAR l
ENCODING 108
SWIDTH 600 0
DWIDTH 20 0
BBX 15 21 2 0
BITMAP
7F80
7F80
7F80
0380
0380
0380
0380
0380
0380
0380
0380
0380
0380
0380
0380
0380
0380
0380
FFFE
FFFE
FFFE
ENDCHAR

STARTCHAR m
ENCODING 109
SWIDTH 600 0
DWIDTH 20 0
BBX 21 16 0 0
BITMAP
01C700
FBEFC0
FFFFE0
FEFDE0
3C78E0
3870E0
3870E0
3870E0
3870E0
3870E0
3870E0
3870E0
3870E0
FE7CF8
FE7CF8
FE7CF8
ENDCHAR

STARTCHAR n
ENCODING 110
SWIDTH 600 0
DWIDTH 20 0
BBX 18 16 1 0
BITMAP
00F000
7DFC00
7FFE00
7F8F00
1E0700
1C0700
1C0700
1C0700
1C0700
1C0700
1C0700
1C0700
1C0700
7F1FC0
FF1FC0
7F1FC0
ENDCHAR

STARTCHAR o
ENCODING 111
SWIDTH 600 0
DWIDTH 20 0
BBX 17 16 1 0
BITMAP
07F000
1FFC00
3FFE00
7E3F00
780F00
F00780
F00780
E00380
E00380
E00380
F00780
780F00
7E3F00
3FFE00
1FFC00
07F000
ENDCHAR

STARTCHAR p
ENCODING 112
SWIDTH 600 0
DWIDTH 20 0
BBX 19 21 0 -5
BITMAP
FCFC00
FFFF00
FFFF80
1F87C0
1E01E0
1E01E0
1C00E0
1C00E0
1E01E0
1E01E0
1F87C0
1FFF80
1FFF00
1CFC00
1C0000
1C0000
1C0000
1C0000
FFC000
FFC000
FFC000
ENDCHAR

STARTCHAR q
ENCODING 113
SWIDTH 600 0
DWIDTH 20 0
BBX 19 21 1 -5
BITMAP
07E7E0
1FFFE0
3FFFE0
7C3F00
F00F00
F00F00
E00700
E00700
F00F00
F00F00
7C3F00
3FFF00
1FFF00
07E700
000700
000700
000700
000700
007FE0
007FE0
007FE0
ENDCHAR

STARTCHAR r
ENCODING 114
SWIDTH 600 0
DWIDTH 20 0
BBX 17 16 2 0
BITMAP
003E00
7EFF00
FFFF80
7FF780
0FC100
0F8000
0F0000
0E0000
0E0000
0E0000
0E0000
0E0000
0E0000
FFFC00
FFFC00
FFFC00
ENDCHAR

STARTCHAR s
ENCODING 115
SWIDTH 600 0
DWIDTH 20 0
BBX 15 16 2 0
BITMAP
0FE8
3FFC
3FFC
7CFC
701C
780C
7FE0
3FF8
0FFC
007E
600E
E00E
F83E
FFFC
FFF8
6FF0
ENDCHAR

STARTCHAR t
ENCODING 116
SWIDTH 600 0
DWIDTH 20 0
BBX 18 20 2 0
BITMAP
0E0000
0E0000
0E0000
0E0000
0E0000
7FFE00
FFFE00
7FFE00
0E0000
0E0000
0E0000
0E0000
0E0000
0E0000
0E0000
0E0180
0F0FC0
0FFF80
07FF80
01FC00
ENDCHAR

STARTCHAR u
ENCODING 117
SWIDTH 600 0
DWIDTH 20 0
BBX 18 15 1 0
BITMAP
FC3F00
FC3F00
FC3F00
1C0700
1C0700
1C0700
1C0700
1C0700
1C0700
1C0700
1C0F00
1E3F80
1FFFC0
0FFFC0
07E780
ENDCHAR

STARTCHAR v
ENCODING 118
SWIDTH 600 0
DWIDTH 20 0
BBX 20 15 0 0
BITMAP
FF9FF0
FF9FF0
FF9FF0
1E0780
1E0780
0E0F00
0F0F00
071E00
079E00
03BC00
03DC00
01F800
01F800
00F000
00F000
ENDCHAR

STARTCHAR w
ENCODING 119
SWIDTH 600 0
DWIDTH 20 0
BBX 20 15 0 0
BITMAP
FE07F0
FE0FF0
FE07F0
38F1C0
38F3C0
3CF3C0
1DFB80
1DFB80
1DFF80
1FDF80
1F9F00
0F9F00
0F1F00
0F0F00
0F0F00
ENDCHAR

STARTCHAR x
ENCODING 120
SWIDTH 600 0
DWIDTH 20 0
BBX 18 14 1 0
BITMAP
7F3F80
FF3FC0
7E1F80
1F3E00
0FBC00
07F800
03E000
07F000
0FFC00
1F3E00
3C1F00
FF3FC0
FF3FC0
FE3FC0
ENDCHAR

STARTCHAR y
ENCODING 121
SWIDTH 600 0
DWIDTH 20 0
BBX 18 21 1 -7
BITMAP
FE1FC0
FE1FC0
FE1FC0
380700
3C0F00
1C1E00
1E1E00
0E3C00
0F3C00
077800
07B800
03F000
03F000
01E000
01E000
03C000
03C000
078000
FFE000
FFE000
FFE000
ENDCHAR

STARTCHAR z
ENCODING 122
SWIDTH 600 0
DWIDTH 20 0
BBX 14 14 3 0
BITMAP
FFFC
FFFC
FFFC
E0F0
E1E0
43C0
0780
0F00
1E00
7C18
F81C
FFFC
FFFC
FFFC
ENDCHAR

STARTCHAR braceleft
ENCODING 123
SWIDTH 600 0
DWIDTH 20 0
BBX 9 26 5 -5
BITMAP
0700
0F80
1F80
1E00
1C00
1C00
1C00
1C00
1C00
1C00
1C00
7C00
F800
FC00
3C00
1C00
1C00
1C00
1C00
1C00
1C00
1C00
1E00
1F80
0F80
0300
ENDCHAR

STARTCHAR bar
ENCODING 124
SWIDTH 600 0
DWIDTH 20 0
BBX 3 26 8 -5
BITMAP
40
E0
E0
E0
E0
E0
E0
E0
E0
E0
E0
E0
E0
E0
E0
E0
E0
E0
E0
E0
E0
E0
E0
E0
E0
60
ENDCHAR

STARTCHAR braceright
ENCODING 125
SWIDTH 600 0
DWIDTH 20 0
BBX 9 26 5 -5
BITMAP
7000
F800
FC00
3C00
1C00
1C00
1C00
1C00
1C00
1C00
1C00
1F00
0F80
1F80
1E00
1C00
1C00
1C00
1C00
1C00
1C00
1C00
3C00
FC00
F800
6000
ENDCHAR

STARTCHAR asciitilde
ENCODING 126
SWIDTH 600 0
DWIDTH 20 0
BBX 16 7 2 6
BITMAP
1E00
3F06
7F8F
FBEF
F3FE
E0FC
0078
ENDCHAR

STARTCHAR space
ENCODING 160
SWIDTH 600 0
DWIDTH 21 0
BBX 0 0 0 0
BITMAP
ENDCHAR

STARTCHAR afii10023
ENCODING 161
SWIDTH 600 0
DWIDTH 20 0
BBX 18 26 0 0
BITMAP
070E00
070E00
070E00
000000
000000
000000
FFFF80
FFFF80
7FFF80
1C0380
1C0380
1C1380
1C3B80
1C3800
1FF800
1FF800
1FF800
1C3800
1C3880
1C39C0
1C01C0
1C01C0
1C01C0
FFFFC0
FFFFC0
7FFFC0
ENDCHAR

STARTCHAR afii10051
ENCODING 162
SWIDTH 600 0
DWIDTH 20 0
BBX 19 21 0 -1
BITMAP
7FFC00
FFFC00
FFFC00
F39C00
E39C00
E39C00
638000
038000
039F80
03BFC0
03FFC0
03F1E0
03C0E0
0380E0
0380E0
0380E0
0381E0
1FE3C0
1FE7C0
0FE780
000200
ENDCHAR

STARTCHAR afii10052
ENCODING 163
SWIDTH 600 0
DWIDTH 20 0
BBX 17 28 2 0
BITMAP
002000
00E000
01E000
038000
070000
020000
000000
000000
FFFF80
FFFF80
FFFF80
0E0380
0E0380
0E0380
0E0380
0E0380
0E0100
0E0000
0E0000
0E0000
0E0000
0E0000
0E0000
0E0000
0E0000
FFE000
FFE000
FFE000
ENDCHAR

STARTCHAR afii10053
ENCODING 164
SWIDTH 600 0
DWIDTH 20 0
BBX 18 20 1 0
BITMAP
03F900
0FFF80
1FFF80
3E0F80
780780
700380
F00380
E00000
FFF800
FFF800
FFF800
E00000
F00000
F00000
780180
7C03C0
3F0FC0
1FFF80
0FFF00
03FC00
ENDCHAR

STARTCHAR afii10054
ENCODING 165
SWIDTH 600 0
DWIDTH 20 0
BBX 16 20 2 0
BITMAP
07F4
1FFE
3FFE
7C3E
780E
700E
7006
7800
3FC0
1FF8
0FFE
01FE
001F
6007
F007
F00F
FC3F
FFFE
FFFC
47F0
ENDCHAR

STARTCHAR afii10055
ENCODING 166
SWIDTH 600 0
DWIDTH 20 0
BBX 15 20 2 0
BITMAP
7FFC
FFFE
7FFC
0380
0380
0380
0380
0380
0380
0380
0380
0380
0380
0380
0380
0380
0380
7FFC
FFFE
7FFC
ENDCHAR

STARTCHAR afii10056
ENCODING 167
SWIDTH 600 0
DWIDTH 20 0
BBX 14 26 3 0
BITMAP
3870
3C70
3870
0000
0000
0000
FFFC
FFFC
FFFC
0380
0380
0380
0380
0380
0380
0380
0380
0380
0380
0380
0380
0380
0380
FFFC
FFFC
FFFC
ENDCHAR

STARTCHAR afii10057
ENCODING 168
SWIDTH 600 0
DWIDTH 20 0
BBX 18 20 1 0
BITMAP
07FFC0
07FFC0
07FFC0
001C00
001C00
001C00
001C00
001C00
001C00
001C00
401C00
E01C00
E01C00
E01C00
E01C00
E03C00
F8F800
FFF800
7FF000
0FC000
ENDCHAR

STARTCHAR afii10058
ENCODING 169
SWIDTH 600 0
DWIDTH 20 0
BBX 19 20 0 0
BITMAP
1FFF00
1FFF00
1FFF00
073800
073800
073800
073800
073800
073F00
073FC0
073FC0
073BE0
0739E0
0738E0
E738E0
E739E0
EF7FE0
FEFFC0
FEFF80
7C7E00
ENDCHAR

STARTCHAR afii10059
ENCODING 170
SWIDTH 600 0
DWIDTH 20 0
BBX 21 20 -1 0
BITMAP
3E7C00
7F7E00
7F7E00
3E7C00
1C3800
1C3800
1C3800
1C3800
1C3800
1FFFC0
1FFFE0
1FFFF0
1C38F8
1C3878
1C3838
1C3838
1C3878
7E7FF8
FF7FF0
7E7FC0
ENDCHAR

STARTCHAR afii10060
ENCODING 171
SWIDTH 600 0
DWIDTH 20 0
BBX 20 20 0 0
BITMAP
7FFE00
FFFE00
FFFE00
F38E00
F38E00
638E00
238400
038000
03BF00
03FF80
03FF80
03F3C0
03C1C0
0381C0
0381C0
0381C0
0381C0
1FF7F0
1FF7F0
0FF7F0
ENDCHAR

STARTCHAR afii10061
ENCODING 172
SWIDTH 600 0
DWIDTH 20 0
BBX 19 28 1 0
BITMAP
001000
003000
00F000
01E000
038000
030000
000000
000000
FF8780
FF8F80
FF9FC0
1D3DC0
1C3B80
1C7980
1CF000
1DF000
1FE000
1FE000
1FF000
1CF800
1C7800
1C3C00
1C1C00
1C1E00
1C0E00
FF8FC0
FF87E0
7F87C0
ENDCHAR

STARTCHAR hyphen
ENCODING 173
SWIDTH 600 0
DWIDTH 20 0
BBX 14 3 3 8
BITMAP
FFFC
FFFC
FFFC
ENDCHAR

STARTCHAR afii10062
ENCODING 174
SWIDTH 600 0
DWIDTH 20 0
BBX 20 27 0 0
BITMAP
060600
060600
070E00
03FC00
00F000
000000
000000
FE07E0
FF0FF0
FE07E0
3C0380
1E0780
0E0F00
0F0F00
071E00
079E00
03DC00
03FC00
01F800
01F000
00F000
38E000
39E000
3BC000
3FC000
3F8000
3F0000
ENDCHAR

STARTCHAR afii10145
ENCODING 175
SWIDTH 600 0
DWIDTH 20 0
BBX 19 24 0 -4
BITMAP
7F1FC0
FFBFE0
7F1FC0
1C0700
1C0700
1C0700
1C0700
1C0700
1C0700
1C0700
1C0700
1C0700
1C0700
1C0700
1C0700
1C0700
1C0700
7FFFC0
7FFFC0
3FFFC0
00E000
00E000
00E000
00E000
ENDCHAR

STARTCHAR afii10017
ENCODING 176
SWIDTH 600 0
DWIDTH 20 0
BBX 22 20 -1 0
BITMAP
0FF800
1FF800
0FFC00
00FC00
01EE00
01DE00
03CE00
03CF00
038700
078780
070380
07FF80
0FFFC0
0FFFC0
1E01E0
1E01E0
1C00E0
7F87F8
FF87FC
7F87F8
ENDCHAR

STARTCHAR afii10018
ENCODING 177
SWIDTH 600 0
DWIDTH 20 0
BBX 19 20 0 0
BITMAP
FFFFC0
FFFFC0
FFFFC0
1C01C0
1C01C0
1C01C0
1C0080
1C0000
1C0000
1FFF00
1FFF80
1FFFC0
1C03E0
1C01E0
1C00E0
1C00E0
1C01E0
FFFFE0
FFFFC0
7FFF00
ENDCHAR

STARTCHAR afii10019
ENCODING 178
SWIDTH 600 0
DWIDTH 20 0
BBX 18 20 0 0
BITMAP
FFFC00
FFFE00
FFFF00
1C0F80
1C0380
1C0380
1C0380
1C0780
1C1F80
1FFE00
1FFF00
1FFF80
1C07C0
1C03C0
1C01C0
1C01C0
1C03C0
FFFF80
FFFF80
7FFE00
ENDCHAR

STARTCHAR afii10020
ENCODING 179
SWIDTH 600 0
DWIDTH 20 0
BBX 17 20 2 0
BITMAP
FFFF80
FFFF80
FFFF80
0E0380
0E0380
0E0380
0E0380
0E0380
0E0100
0E0000
0E0000
0E0000
0E0000
0E0000
0E0000
0E0000
0E0000
FFE000
FFE000
FFE000
ENDCHAR

STARTCHAR afii10021
ENCODING 180
SWIDTH 600 0
DWIDTH 20 0
BBX 19 24 1 -4
BITMAP
3FFFC0
3FFFE0
3FFFC0
070700
070700
070700
070700
070700
070700
070700
070700
070700
070700
0F0700
0F0700
1E0700
FFFF80
FFFFC0
FFFFE0
FFFFE0
E001E0
E001E0
E001E0
E000C0
ENDCHAR

STARTCHAR afii10022
ENCODING 181
SWIDTH 600 0
DWIDTH 20 0
BBX 18 20 0 0
BITMAP
FFFF80
FFFF80
7FFF80
1C0380
1C0380
1C2380
1C7380
1C7000
1FF000
1FF000
1FF000
1C7000
1C7080
1C71C0
1C01C0
1C01C0
1C01C0
FFFFC0
FFFFC0
7FFFC0
ENDCHAR

STARTCHAR afii10024
ENCODING 182
SWIDTH 600 0
DWIDTH 20 0
BBX 19 20 0 0
BITMAP
E1F0E0
F3F9E0
FBFBE0
FCE7E0
ECE760
CEEE60
0EEE00
076C00
07F800
07FC00
0FFE00
0EEF00
1EEF00
1CE700
3CE780
38E780
78E380
FBFBE0
F3F9E0
F1F1E0
ENDCHAR

STARTCHAR afii10025
ENCODING 183
SWIDTH 600 0
DWIDTH 20 0
BBX 18 21 0 0
BITMAP
1C0000
1DFC00
1FFE00
1FFF00
1F0F80
1E0380
1C0380
1C0780
180F80
01FE00
03FF00
01FF80
0007C0
0003C0
0001C0
6001C0
F803C0
FE0FC0
7FFF80
1FFF00
07FC00
ENDCHAR

STARTCHAR afii10026
ENCODING 184
SWIDTH 600 0
DWIDTH 20 0
BBX 20 20 0 0
BITMAP
FF07F0
FF87F0
FF0FF0
380F80
381F80
383F80
383D80
387B80
38F380
38F380
39E380
3BE380
3BC380
3B8380
3F8380
3F0380
3E0380
FE1FE0
FC1FF0
FC1FE0
ENDCHAR

STARTCHAR afii10027
ENCODING 185
SWIDTH 600 0
DWIDTH 20 0
BBX 20 27 0 0
BITMAP
060600
060600
070E00
03FC00
00F800
000000
000000
FF07F0
FF87F0
FF0FF0
380F80
381F80
383F80
383D80
387B80
38F380
38F380
39E380
39E380
3BC380
3B8380
3F8380
3F0380
3E0380
FE1FE0
FC1FF0
FC1FE0
ENDCHAR

STARTCHAR afii10028
ENCODING 186
SWIDTH 600 0
DWIDTH 20 0
BBX 19 20 1 0
BITMAP
FF8780
FF8F80
FF9FC0
1D3DC0
1C3B80
1C7980
1CF000
1DF000
1FE000
1FE000
1FF000
1CF800
1C7800
1C3C00
1C1C00
1C1E00
1C0E00
FF8FC0
FF87E0
7F87C0
ENDCHAR

STARTCHAR afii10029
ENCODING 187
SWIDTH 600 0
DWIDTH 20 0
BBX 19 20 1 0
BITMAP
1FFFC0
3FFFE0
1FFFC0
070700
070700
070700
070700
070700
070700
070700
070700
070700
070700
070700
E70700
E70700
EF0F80
FE3FE0
FE3FE0
FC1FC0
ENDCHAR

STARTCHAR afii10030
ENCODING 188
SWIDTH 600 0
DWIDTH 20 0
BBX 21 20 -1 0
BITMAP
7C01F0
FE03F8
FE03F8
3E03E0
3F07E0
3F07E0
3F8FE0
3B8EE0
3BDEE0
3BDEE0
39FCE0
39FCE0
38F8E0
38F8E0
3870E0
3800E0
3800E0
FF07F8
FF8FF8
FF07F8
ENDCHAR

STARTCHAR afii10031
ENCODING 189
SWIDTH 600 0
DWIDTH 20 0
BBX 19 20 0 0
BITMAP
7F1FC0
7FBFC0
7F1FC0
1C0700
1C0700
1C0700
1C0700
1C0700
1C0700
1FFF00
1FFF00
1FFF00
1C0700
1C0700
1C0700
1C0700
1C0700
7F1FC0
FFBFE0
7F1FC0
ENDCHAR

STARTCHAR afii10032
ENCODING 190
SWIDTH 600 0
DWIDTH 20 0
BBX 18 20 1 0
BITMAP
03F000
0FFC00
1FFE00
3E1F00
7C0780
780780
F003C0
F003C0
E001C0
E001C0
E001C0
E001C0
F003C0
F003C0
780780
7C0F80
3E1F00
1FFE00
0FFC00
03F000
ENDCHAR

STARTCHAR afii10033
ENCODING 191
SWIDTH 600 0
DWIDTH 20 0
BBX 19 20 0 0
BITMAP
7FFFC0
7FFFC0
7FFFC0
1C0700
1C0700
1C0700
1C0700
1C0700
1C0700
1C0700
1C0700
1C0700
1C0700
1C0700
1C0700
1C0700
1C0700
7F1FC0
FFBFE0
7F1FC0
ENDCHAR

STARTCHAR afii10034
ENCODING 192
SWIDTH 600 0
DWIDTH 20 0
BBX 17 20 2 0
BITMAP
FFF800
FFFE00
FFFF00
1C0F80
1C0780
1C0380
1C0380
1C0380
1C0780
1C1F00
1FFF00
1FFE00
1FF800
1C0000
1C0000
1C0000
1C0000
FFE000
FFF000
7FE000
ENDCHAR

STARTCHAR afii10035
ENCODING 193
SWIDTH 600 0
DWIDTH 20 0
BBX 18 20 1 0
BITMAP
07F900
0FFF80
1FFF80
3E1F80
780780
700380
F00380
E00000
E00000
E00000
E00000
E00000
E00000
F00000
F00100
7803C0
3E0F80
3FFF80
0FFF00
03F800
ENDCHAR

STARTCHAR afii10036
ENCODING 194
SWIDTH 600 0
DWIDTH 20 0
BBX 17 20 1 0
BITMAP
FFFF80
FFFF80
FFFF80
E1C380
E1C380
E1C380
E1C380
E1C380
41C100
01C000
01C000
01C000
01C000
01C000
01C000
01C000
01C000
1FFC00
3FFE00
1FFC00
ENDCHAR

STARTCHAR afii10037
ENCODING 195
SWIDTH 600 0
DWIDTH 20 0
BBX 20 20 0 0
BITMAP
FE0FE0
FF0FF0
FE07E0
3C0380
1E0780
0E0F00
0F0F00
071E00
079E00
03DC00
03FC00
01F800
01F000
00F000
38E000
39E000
3BC000
3FC000
3F8000
3F0000
ENDCHAR

STARTCHAR afii10038
ENCODING 196
SWIDTH 600 0
DWIDTH 20 0
BBX 18 20 1 0
BITMAP
07F800
07FC00
07F800
00E000
03F000
3FFF00
7FFF80
FFFFC0
F0E3C0
E0E1C0
E0E1C0
F0E1C0
F8E7C0
7FFF80
3FFF80
1FFE00
00E000
07F800
07FC00
07F800
ENDCHAR

STARTCHAR afii10039
ENCODING 197
SWIDTH 600 0
DWIDTH 20 0
BBX 20 20 0 0
BITMAP
7E0FC0
7F0FE0
7F0FE0
1E0780
1F0F00
0F9F00
07BE00
03FC00
01F800
00F000
01F800
03F800
03DC00
079E00
0F0F00
1E0780
3E07C0
7F9FE0
FF0FF0
7F0FE0
ENDCHAR

STARTCHAR afii10040
ENCODING 198
SWIDTH 600 0
DWIDTH 20 0
BBX 19 24 0 -4
BITMAP
7F1FC0
FFBFE0
7F1FC0
1C0700
1C0700
1C0700
1C0700
1C0700
1C0700
1C0700
1C0700
1C0700
1C0700
1C0700
1C0700
1C0700
1C0700
7FFFE0
7FFFE0
3FFFE0
0000E0
0000E0
0000E0
0000E0
ENDCHAR

STARTCHAR afii10041
ENCODING 199
SWIDTH 600 0
DWIDTH 20 0
BBX 19 20 0 0
BITMAP
7F1FC0
FFBFE0
7F9FC0
1C0700
1C0700
1C0700
1C0700
1C0700
1C0700
1C0F00
1E3F00
1FFF00
0FFF00
07E700
000700
000700
000700
007FC0
00FFE0
007FC0
ENDCHAR

STARTCHAR afii10042
ENCODING 200
SWIDTH 600 0
DWIDTH 20 0
BBX 21 20 -1 0
BITMAP
7CF9F0
FDFDF8
7CF9F0
1C71C0
1C71C0
1C71C0
1C71C0
1C71C0
1C71C0
1C71C0
1C71C0
1C71C0
1C71C0
1C71C0
1C71C0
1C71C0
1C71C0
7FFFF0
7FFFF0
3FFFF0
ENDCHAR

STARTCHAR afii10043
ENCODING 201
SWIDTH 600 0
DWIDTH 20 0
BBX 21 24 -1 -4
BITMAP
7CF9F0
FDFDF8
7DFDF0
3C71E0
1C71C0
1C71C0
1C71C0
1C71C0
1C71C0
1C71C0
1C71C0
1C71C0
1C71C0
1C71C0
1C71C0
1C71C0
1C71C0
7FFFF8
7FFFF8
3FFFF8
000038
000038
000038
000038
ENDCHAR

STARTCHAR afii10044
ENCODING 202
SWIDTH 600 0
DWIDTH 20 0
BBX 20 20 0 0
BITMAP
FFFC00
FFFC00
FFFC00
E1C000
E1C000
E1C000
41C000
01C000
01C000
01FF80
01FFC0
01FFE0
01C1F0
01C0F0
01C070
01C070
01C1F0
07FFF0
0FFFE0
07FF80
ENDCHAR

STARTCHAR afii10045
ENCODING 203
SWIDTH 600 0
DWIDTH 20 0
BBX 21 20 -1 0
BITMAP
FF83F8
FFC3F8
FF83F8
1C00E0
1C00E0
1C00E0
1C00E0
1C00E0
1C00E0
1FE0E0
1FF0E0
1FF8E0
1C7CE0
1C1CE0
1C1CE0
1C1CE0
1C3CE0
7FFBF8
7FFBF8
7FE3F8
ENDCHAR

STARTCHAR afii10046
ENCODING 204
SWIDTH 600 0
DWIDTH 20 0
BBX 18 20 1 0
BITMAP
FF8000
FF8000
FF8000
1C0000
1C0000
1C0000
1C0000
1C0000
1C0000
1FFE00
1FFF00
1FFF80
1C07C0
1C01C0
1C01C0
1C01C0
1C03C0
FFFFC0
FFFF80
7FFE00
ENDCHAR

STARTCHAR afii10047
ENCODING 205
SWIDTH 600 0
DWIDTH 20 0
BBX 18 20 1 0
BITMAP
27F000
7FFC00
7FFE00
7C1F00
700780
700380
7003C0
0003C0
07FFC0
07FFC0
07FDC0
0003C0
0003C0
000380
600780
F00F80
FC3F00
7FFE00
3FFC00
0FF000
ENDCHAR

STARTCHAR afii10048
ENCODING 206
SWIDTH 600 0
DWIDTH 20 0
BBX 21 20 -1 0
BITMAP
7F0F80
7FBFE0
7F7FF0
1C78F0
1CF078
1CE078
1CE038
1CE038
1FE038
1FE038
1FE038
1CE038
1CE038
1CE078
1CF078
1CF070
1C79F0
7F7FE0
FFBFE0
7F0F80
ENDCHAR

STARTCHAR afii10049
ENCODING 207
SWIDTH 600 0
DWIDTH 20 0
BBX 20 20 -1 0
BITMAP
01FFF0
07FFF0
0FFFF0
1F0380
1E0380
1C0380
1C0380
1E0380
0F8380
0FFF80
01FF80
03FF80
07C380
0F8380
0F0380
1E0380
3C0380
FC1FF0
F83FF0
F01FF0
ENDCHAR

STARTCHAR afii10065
ENCODING 208
SWIDTH 600 0
DWIDTH 20 0
BBX 17 16 2 0
BITMAP
1FE000
3FF800
7FFC00
3C7C00
001C00
001C00
1FFC00
3FFC00
7FFC00
F83C00
F01C00
E03C00
F0FC00
FFFF80
7FFF80
1F9F80
ENDCHAR

STARTCHAR afii10066
ENCODING 209
SWIDTH 600 0
DWIDTH 20 0
BBX 16 22 2 0
BITMAP
000C
001C
001C
0FFC
3FF8
7FF0
7000
F7F0
FFF8
FFFC
FC3E
F00F
F00F
E007
E007
E007
F00F
F81F
7C3E
3FFC
1FF8
07E0
ENDCHAR

STARTCHAR afii10067
ENCODING 210
SWIDTH 600 0
DWIDTH 20 0
BBX 17 15 1 0
BITMAP
FFFC00
FFFE00
FFFF00
1C0F00
1C0700
1C0F00
1FFE00
1FFE00
1FFF80
1C0780
1C0380
1C0780
FFFF80
FFFF00
7FFE00
ENDCHAR

STARTCHAR afii10068
ENCODING 211
SWIDTH 600 0
DWIDTH 20 0
BBX 17 14 2 0
BITMAP
FFFF80
FFFF80
FFFF80
0E0380
0E0380
0E0380
0E0380
0E0380
0E0000
0E0000
0E0000
FFE000
FFE000
FFE000
ENDCHAR

STARTCHAR afii10069
ENCODING 212
SWIDTH 600 0
DWIDTH 20 0
BBX 17 18 1 -4
BITMAP
3FFF80
3FFF80
3FFF80
070E00
070E00
070E00
070E00
070E00
070E00
0F0E00
1E0E00
FFFF80
FFFF80
FFFF80
E00380
E00380
E00380
E00380
ENDCHAR

STARTCHAR afii10070
ENCODING 213
SWIDTH 600 0
DWIDTH 20 0
BBX 17 16 1 0
BITMAP
07F000
1FFC00
3FFE00
7C1F00
780F00
F00780
FFFF80
FFFF80
FFFF80
F00000
700000
780100
3F3F80
3FFF80
1FFF80
07FC00
ENDCHAR

STARTCHAR afii10072
ENCODING 214
SWIDTH 600 0
DWIDTH 20 0
BBX 19 15 1 0
BITMAP
F1E1E0
FBF3E0
FDF7E0
FCE760
EEEF60
0F6E00
07FC00
0FFE00
0FFE00
1EEF00
3CE780
78E3C0
FBF3E0
F3F1E0
F1E1E0
ENDCHAR

STARTCHAR afii10073
ENCODING 215
SWIDTH 600 0
DWIDTH 20 0
BBX 17 17 1 0
BITMAP
380000
39F800
3FFE00
3FFF00
3F1F00
3C0700
3C0F00
39FF00
1BFE00
03FF00
00FF80
200380
780380
FF0F80
7FFF80
3FFF00
07FC00
ENDCHAR

STARTCHAR afii10074
ENCODING 216
SWIDTH 600 0
DWIDTH 20 0
BBX 19 14 1 0
BITMAP
FF0FE0
FF0FE0
FF1FC0
383F00
387F00
38F700
39E700
39C700
3BC700
3F8700
3F0700
FE1FC0
FC3FC0
FC1FC0
ENDCHAR

STARTCHAR afii10075
ENCODING 217
SWIDTH 600 0
DWIDTH 20 0
BBX 19 21 1 0
BITMAP
0C0400
0E0C00
071C00
07F800
01F000
000000
000000
FF0FE0
FF0FE0
FF1FC0
383F00
387F00
38F700
39E700
39C700
3BC700
3F8700
3F0700
FE1FC0
FC3FC0
FC1FC0
ENDCHAR

STARTCHAR afii10076
ENCODING 218
SWIDTH 600 0
DWIDTH 20 0
BBX 18 14 1 0
BITMAP
7F0F80
FF9F80
7F3F80
1C7B80
1CF300
1FE000
1FE000
1FF000
1CF800
1C3C00
1C3E00
7F1F80
FF8FC0
7F0780
ENDCHAR

STARTCHAR afii10077
ENCODING 219
SWIDTH 600 0
DWIDTH 20 0
BBX 18 15 0 0
BITMAP
3FFFC0
3FFFC0
3FFFC0
070700
070700
070700
070700
070700
070700
C70700
E70700
FF0700
FE1FC0
FE3FC0
781FC0
ENDCHAR

STARTCHAR afii10078
ENCODING 220
SWIDTH 600 0
DWIDTH 20 0
BBX 19 15 0 0
BITMAP
7C07C0
FE0FE0
FE0FE0
3F1F80
3F1F80
3BBD80
3BBB80
3BFB80
39F380
38F380
38E380
380380
FF1FE0
FF1FE0
FF1FE0
ENDCHAR

STARTCHAR afii10079
ENCODING 221
SWIDTH 600 0
DWIDTH 20 0
BBX 19 14 0 0
BITMAP
7F1FC0
7FBFC0
3F1FC0
1C0700
1C0700
1FFF00
1FFF00
1FFF00
1C0700
1C0700
1C0700
7F1FC0
FFBFE0
7F1FC0
ENDCHAR

STARTCHAR afii10080
ENCODING 222
SWIDTH 600 0
DWIDTH 20 0
BBX 17 16 1 0
BITMAP
07F000
1FFC00
3FFE00
7E3F00
780F00
F00780
F00780
E00380
E00380
E00380
F00780
780F00
7E3F00
3FFE00
1FFC00
07F000
ENDCHAR

STARTCHAR afii10081
ENCODING 223
SWIDTH 600 0
DWIDTH 20 0
BBX 19 14 0 0
BITMAP
7FFFC0
7FFFC0
3FFFC0
1C0700
1C0700
1C0700
1C0700
1C0700
1C0700
1C0700
1C0700
7F1FC0
FFBFE0
7F1FC0
ENDCHAR

STARTCHAR afii10082
ENCODING 224
SWIDTH 600 0
DWIDTH 20 0
BBX 19 21 0 -5
BITMAP
FCFC00
FFFF00
FFFF80
1F87C0
1E01E0
1E01E0
1C00E0
1C00E0
1E01E0
1E01E0
1F87C0
1FFF80
1FFF00
1CFC00
1C0000
1C0000
1C0000
1C0000
FFC000
FFC000
FFC000
ENDCHAR

STARTCHAR afii10083
ENCODING 225
SWIDTH 600 0
DWIDTH 20 0
BBX 17 16 2 0
BITMAP
07F200
1FFF00
3FFF00
7E1F00
780F00
F00700
E00600
E00000
E00000
E00000
F00100
F80780
7E1F80
3FFF00
1FFE00
07F800
ENDCHAR

STARTCHAR afii10084
ENCODING 226
SWIDTH 600 0
DWIDTH 20 0
BBX 17 14 1 0
BITMAP
FFFF80
FFFF80
FFFF80
E1C380
E1C380
E1C380
E1C380
E1C380
01C000
01C000
01C000
1FFC00
3FFE00
1FFC00
ENDCHAR

STARTCHAR afii10085
ENCODING 227
SWIDTH 600 0
DWIDTH 20 0
BBX 19 19 1 -4
BITMAP
7E0FC0
FF1FE0
FF0FE0
3C0780
1E0F00
1E0F00
0F1E00
071E00
07BC00
03D800
03F800
01F000
00F000
39E000
39E000
3BC000
3F8000
3F8000
1E0000
ENDCHAR

STARTCHAR afii10086
ENCODING 228
SWIDTH 600 0
DWIDTH 20 0
BBX 17 26 1 -4
BITMAP
010000
0FC000
0FC000
0FC000
01C000
01C000
1FFC00
3FFE00
7FFF00
79CF00
F1C780
F1C380
E1C380
E1C380
E1C380
E1C380
F1C780
F1C780
79CF00
7FFF00
3FFE00
1FFC00
01C000
0FF800
1FFC00
0FF800
ENDCHAR

STARTCHAR afii10087
ENCODING 229
SWIDTH 600 0
DWIDTH 20 0
BBX 18 15 1 0
BITMAP
7E1F80
FF3FC0
7F3F80
3E1F00
1F3E00
0FF800
03E000
03F000
07F800
0FBC00
1F3E00
7C1F00
FF3FC0
FF3FC0
FE1F80
ENDCHAR

STARTCHAR afii10088
ENCODING 230
SWIDTH 600 0
DWIDTH 20 0
BBX 19 18 0 -4
BITMAP
7F1FC0
FFBFE0
7F1FC0
1C0700
1C0700
1C0700
1C0700
1C0700
1C0700
1C0700
1C0700
7FFFE0
7FFFE0
3FFFE0
0000E0
0000E0
0000E0
0000E0
ENDCHAR

STARTCHAR afii10089
ENCODING 231
SWIDTH 600 0
DWIDTH 20 0
BBX 18 14 1 0
BITMAP
FF3F80
FF7FC0
FF3F80
380E00
380E00
380E00
3C7E00
3FFE00
1FFE00
0FEE00
000E00
00FF80
01FFC0
00FF80
ENDCHAR

STARTCHAR afii10090
ENCODING 232
SWIDTH 600 0
DWIDTH 20 0
BBX 21 14 -1 0
BITMAP
7CF9F0
FDFDF8
7CF9F0
1C71C0
1C71C0
1C71C0
1C71C0
1C71C0
1C71C0
1C71C0
1C71C0
7FFFF0
7FFFF0
3FFFF0
ENDCHAR

STARTCHAR afii10091
ENCODING 233
SWIDTH 600 0
DWIDTH 20 0
BBX 21 18 -1 -4
BITMAP
7CF9F0
FDFDF8
7CF9F0
1C71C0
1C71C0
1C71C0
1C71C0
1C71C0
1C71C0
1C71C0
1C71C0
7FFFF8
7FFFF8
3FFFF8
000038
000038
000038
000038
ENDCHAR

STARTCHAR afii10092
ENCODING 234
SWIDTH 600 0
DWIDTH 20 0
BBX 19 14 0 0
BITMAP
FFFC00
FFFC00
FFFC00
E0E000
E0E000
E0FF00
E0FFC0
E0FFE0
00E1E0
00E0E0
00E1E0
07FFE0
07FFC0
03FF80
ENDCHAR

STARTCHAR afii10093
ENCODING 235
SWIDTH 600 0
DWIDTH 20 0
BBX 20 14 0 0
BITMAP
7F87F0
FF87F0
7F83F0
1C01C0
1C01C0
1FC1C0
1FF1C0
1FF9C0
1C79C0
1C39C0
1C79C0
7FFBF0
FFF7F0
7FE3F0
ENDCHAR

STARTCHAR afii10094
ENCODING 236
SWIDTH 600 0
DWIDTH 20 0
BBX 18 14 0 0
BITMAP
FF8000
FF8000
7F8000
1C0000
1C0000
1FFE00
1FFF80
1FFFC0
1C03C0
1C01C0
1C03C0
FFFFC0
FFFF80
7FFF00
ENDCHAR

STARTCHAR afii10095
ENCODING 237
SWIDTH 600 0
DWIDTH 20 0
BBX 17 16 1 0
BITMAP
2FF000
7FFC00
7FFE00
7C1F00
780F00
700780
73FF80
03FF80
03FB80
000780
400780
E00F00
FC7F00
FFFE00
7FFC00
0FF000
ENDCHAR

STARTCHAR afii10096
ENCODING 238
SWIDTH 600 0
DWIDTH 20 0
BBX 21 16 -1 0
BITMAP
000F80
7F3FE0
7FBFF0
7F7DF0
1C7878
1CF078
1CF038
1FF038
1FE038
1FF038
1CF038
1C7078
1C78F0
7F7FF0
FFBFE0
7F0F80
ENDCHAR

STARTCHAR afii10097
ENCODING 239
SWIDTH 600 0
DWIDTH 20 0
BBX 19 15 0 0
BITMAP
1FFFE0
3FFFE0
7FFFE0
780700
700700
780700
7FFF00
3FFF00
17FF00
0FE700
0F8700
1F0700
7E3FE0
FC3FE0
783FE0
ENDCHAR

STARTCHAR afii61352
ENCODING 240
SWIDTH 600 0
DWIDTH 20 0
BBX 19 20 1 0
BITMAP
79F800
FDFC00
FDFC00
3C71C0
3E73E0
3E7360
3E7360
3F7360
3F7360
3B7360
3BB3E0
3BF1C0
3BF000
39F3E0
39F3E0
38F3E0
7CF000
FEF000
FE7000
7E6000
ENDCHAR

STARTCHAR afii10071
ENCODING 241
SWIDTH 600 0
DWIDTH 20 0
BBX 17 21 1 0
BITMAP
0E1C00
0E1C00
0E1C00
000000
000000
07F000
1FFC00
3FFE00
7E1F00
780780
F00380
FFFF80
FFFF80
FFFF80
F00000
700000
780100
3F3F80
3FFF80
0FFF80
07FC00
ENDCHAR

STARTCHAR afii10099
ENCODING 242
SWIDTH 600 0
DWIDTH 20 0
BBX 16 28 1 -7
BITMAP
FC00
FFF0
7FF0
1FE0
1C00
1DF8
1FFE
1FFE
1F8F
1E07
1C07
1C07
1C07
1C07
1C07
1C07
1C07
1C07
7F07
FF07
7F07
0007
0007
000F
001F
07FE
0FFC
07F8
ENDCHAR

STARTCHAR afii10100
ENCODING 243
SWIDTH 600 0
DWIDTH 20 0
BBX 17 22 2 0
BITMAP
002000
006000
00E000
03C000
078000
020000
000000
000000
FFFF80
FFFF80
FFFF80
0E0380
0E0380
0E0380
0E0380
0E0380
0E0000
0E0000
0E0000
FFE000
FFE000
FFE000
ENDCHAR

STARTCHAR afii10101
ENCODING 244
SWIDTH 600 0
DWIDTH 20 0
BBX 17 16 2 0
BITMAP
07F200
1FFF00
3FFF00
7C1F00
780F00
F00700
FFE600
FFE000
FFE000
E00000
F00100
780780
7F3F80
3FFF00
1FFE00
07F800
ENDCHAR

STARTCHAR afii10102
ENCODING 245
SWIDTH 600 0
DWIDTH 20 0
BBX 15 16 2 0
BITMAP
0FE8
3FFC
3FFC
7CFC
701C
780C
7FE0
3FF8
0FFC
007E
600E
E00E
F83E
FFFC
FFF8
6FF0
ENDCHAR

STARTCHAR afii10103
ENCODING 246
SWIDTH 600 0
DWIDTH 20 0
BBX 15 21 2 0
BITMAP
0780
0780
0780
0000
0000
0000
7F80
7F80
7F80
0380
0380
0380
0380
0380
0380
0380
0380
0380
FFFE
FFFE
FFFE
ENDCHAR

STARTCHAR afii10104
ENCODING 247
SWIDTH 600 0
DWIDTH 20 0
BBX 16 21 2 0
BITMAP
3870
3870
3870
0000
0000
0000
3FC0
3FC0
3FC0
01C0
01C0
01C0
01C0
01C0
01C0
01C0
01C0
01C0
7FFF
FFFF
7FFF
ENDCHAR

STARTCHAR afii10105
ENCODING 248
SWIDTH 600 0
DWIDTH 20 0
BBX 12 27 3 -6
BITMAP
03C0
03C0
03C0
0000
0000
0000
FFF0
FFF0
FFF0
0070
0070
0070
0070
0070
0070
0070
0070
0070
0070
0070
0070
0070
00F0
01F0
FFE0
FFC0
FF80
ENDCHAR

STARTCHAR afii10106
ENCODING 249
SWIDTH 600 0
DWIDTH 20 0
BBX 19 15 0 0
BITMAP
1FFE00
3FFF00
1FFE00
073800
073800
073C00
073F80
073FC0
073FE0
4739E0
E738E0
FF79E0
FE7FE0
FCFFC0
787F80
ENDCHAR

STARTCHAR afii10107
ENCODING 250
SWIDTH 600 0
DWIDTH 20 0
BBX 21 15 -1 0
BITMAP
3E7C00
7F7E00
7F7E00
1C3800
1C3800
1C3800
1FFFE0
1FFFF0
1FFFF8
1C3878
1C3838
1C3878
7E7FF8
FF7FF0
7E7FE0
ENDCHAR

STARTCHAR afii10108
ENCODING 251
SWIDTH 600 0
DWIDTH 20 0
BBX 19 21 1 0
BITMAP
FC0000
FFF000
7FF000
1FE000
1C0000
1DF800
1FFE00
1FFE00
1F8F00
1E0700
1C0700
1C0700
1C0700
1C0700
1C0700
1C0700
1C0700
1C0700
7F1FC0
FF1FE0
7F1FC0
ENDCHAR

STARTCHAR afii10109
ENCODING 252
SWIDTH 600 0
DWIDTH 20 0
BBX 18 22 1 0
BITMAP
003000
007000
01E000
03C000
030000
000000
000000
000000
7F0F80
FF9F80
7F3F80
1C7B80
1CF300
1FE000
1FE000
1FF000
1CF800
1C3C00
1C3E00
7F1F80
FF8FC0
7F0780
ENDCHAR

STARTCHAR section
ENCODING 253
SWIDTH 600 0
DWIDTH 20 0
BBX 16 24 2 -3
BITMAP
03FE
0FFE
0FFE
1C06
1806
1C06
3C00
FF00
E7C0
C3E0
E0F8
707C
3C1E
1F07
0F83
03E7
00FF
007E
2018
601C
6018
6038
7FF8
7FF0
ENDCHAR

STARTCHAR afii10110
ENCODING 254
SWIDTH 600 0
DWIDTH 20 0
BBX 19 26 1 -4
BITMAP
0C0600
0E0C00
0F1C00
07F800
01F000
000000
000000
7E0FC0
FF1FE0
FF0FE0
3C0780
1E0F00
1E0F00
0F1E00
071E00
07BC00
03D800
03F800
01F000
00F000
39E000
39E000
3BC000
3F8000
3F8000
1E0000
ENDCHAR

STARTCHAR afii10193
ENCODING 255
SWIDTH 600 0
DWIDTH 20 0
BBX 19 18 0 -4
BITMAP
7F1FC0
FFBFE0
7F1FC0
1C0700
1C0700
1C0700
1C0700
1C0700
1C0700
1C0700
1C0700
7FFFC0
7FFFC0
3FFFC0
00E000
00E000
00E000
00E000
ENDCHAR
ENDFONT
